<svg width="42" height="50" viewBox="0 0 42 50" fill="none" xmlns="http://www.w3.org/2000/svg">
<path d="M4 31.3701V0H9.38583V24.0945L22.9921 5.29134H14.4882V0H38.2047C40 0 40 0 40 2.64578C40 5.29157 40 5.29145 38.2047 5.29145L29.7008 5.29134L22.4252 15.2126L36.0941 27.2127C36.0941 27.2127 37.6378 28.5355 38.6772 29.4804C39.9055 30.5971 39.811 31.3701 38.6772 31.3701H34.8976H32.252L19.1181 19.6536L10.6142 31.3701H4Z" fill="url(#paint0_linear_162_21)"/>
<path d="M3.648 43.44L3.504 40.448L8.864 34.8H11.744L6.912 40L5.472 41.536L3.648 43.44ZM1.328 46V34.8H3.904V46H1.328ZM8.992 46L5.008 41.12L6.704 39.28L12.016 46H8.992ZM18.0883 46V44.32L17.9283 43.952V40.944C17.9283 40.4107 17.7629 39.9947 17.4323 39.696C17.1123 39.3973 16.6163 39.248 15.9443 39.248C15.4856 39.248 15.0323 39.3227 14.5843 39.472C14.1469 39.6107 13.7736 39.8027 13.4643 40.048L12.5683 38.304C13.0376 37.9733 13.6029 37.7173 14.2643 37.536C14.9256 37.3547 15.5976 37.264 16.2803 37.264C17.5923 37.264 18.6109 37.5733 19.3363 38.192C20.0616 38.8107 20.4243 39.776 20.4243 41.088V46H18.0883ZM15.4643 46.128C14.7923 46.128 14.2163 46.016 13.7363 45.792C13.2563 45.5573 12.8883 45.2427 12.6323 44.848C12.3763 44.4533 12.2483 44.0107 12.2483 43.52C12.2483 43.008 12.3709 42.56 12.6163 42.176C12.8723 41.792 13.2723 41.4933 13.8163 41.28C14.3603 41.056 15.0696 40.944 15.9443 40.944H18.2323V42.4H16.2163C15.6296 42.4 15.2243 42.496 15.0003 42.688C14.7869 42.88 14.6803 43.12 14.6803 43.408C14.6803 43.728 14.8029 43.984 15.0483 44.176C15.3043 44.3573 15.6509 44.448 16.0883 44.448C16.5043 44.448 16.8776 44.352 17.2083 44.16C17.5389 43.9573 17.7789 43.664 17.9283 43.28L18.3123 44.432C18.1309 44.9867 17.8003 45.408 17.3203 45.696C16.8403 45.984 16.2216 46.128 15.4643 46.128ZM25.5793 46.128C24.8433 46.128 24.1339 46.0427 23.4513 45.872C22.7793 45.6907 22.2459 45.4667 21.8513 45.2L22.6833 43.408C23.0779 43.6533 23.5419 43.856 24.0753 44.016C24.6193 44.1653 25.1526 44.24 25.6753 44.24C26.2513 44.24 26.6566 44.1707 26.8913 44.032C27.1366 43.8933 27.2593 43.7013 27.2593 43.456C27.2593 43.2533 27.1633 43.104 26.9713 43.008C26.7899 42.9013 26.5446 42.8213 26.2352 42.768C25.9259 42.7147 25.5846 42.6613 25.2113 42.608C24.8486 42.5547 24.4806 42.4853 24.1073 42.4C23.7339 42.304 23.3926 42.1653 23.0833 41.984C22.7739 41.8027 22.5233 41.5573 22.3313 41.248C22.1499 40.9387 22.0592 40.5387 22.0592 40.048C22.0592 39.504 22.2139 39.024 22.5233 38.608C22.8433 38.192 23.3019 37.8667 23.8993 37.632C24.4966 37.3867 25.2113 37.264 26.0433 37.264C26.6299 37.264 27.2273 37.328 27.8353 37.456C28.4433 37.584 28.9499 37.7707 29.3553 38.016L28.5233 39.792C28.1073 39.5467 27.6859 39.3813 27.2593 39.296C26.8433 39.2 26.4379 39.152 26.0433 39.152C25.4886 39.152 25.0833 39.2267 24.8273 39.376C24.5713 39.5253 24.4433 39.7173 24.4433 39.952C24.4433 40.1653 24.5339 40.3253 24.7153 40.432C24.9073 40.5387 25.1579 40.624 25.4673 40.688C25.7766 40.752 26.1126 40.8107 26.4753 40.864C26.8486 40.9067 27.2219 40.976 27.5953 41.072C27.9686 41.168 28.3046 41.3067 28.6033 41.488C28.9126 41.6587 29.1633 41.8987 29.3553 42.208C29.5473 42.5067 29.6433 42.9013 29.6433 43.392C29.6433 43.9253 29.4833 44.4 29.1633 44.816C28.8433 45.2213 28.3793 45.5413 27.7713 45.776C27.1739 46.0107 26.4433 46.128 25.5793 46.128ZM36.4153 37.264C37.0979 37.264 37.7059 37.4027 38.2393 37.68C38.7833 37.9467 39.2099 38.3627 39.5193 38.928C39.8286 39.4827 39.9833 40.1973 39.9833 41.072V46H37.4873V41.456C37.4873 40.7627 37.3326 40.2507 37.0233 39.92C36.7246 39.5893 36.2979 39.424 35.7433 39.424C35.3486 39.424 34.9913 39.5093 34.6713 39.68C34.3619 39.84 34.1166 40.0907 33.9353 40.432C33.7646 40.7733 33.6793 41.2107 33.6793 41.744V46H31.1833V34.128H33.6793V39.776L33.1193 39.056C33.4286 38.48 33.8713 38.0373 34.4473 37.728C35.0233 37.4187 35.6793 37.264 36.4153 37.264Z" fill="#312046"/>
<defs>
<linearGradient id="paint0_linear_162_21" x1="26.2991" y1="20.7875" x2="3.99992" y2="5.58511e-05" gradientUnits="userSpaceOnUse">
<stop stop-color="#312046"/>
<stop offset="1" stop-color="#EB8F48"/>
</linearGradient>
</defs>
</svg>
